<svg xmlns="http://www.w3.org/2000/svg" xmlns:xlink="http://www.w3.org/1999/xlink" width="24" height="24" viewBox="0 0 24 24">
  <defs>
    <clipPath id="clip-path">
      <rect width="24" height="24" fill="none"/>
    </clipPath>
  </defs>
  <g id="Duplicate" clip-path="url(#clip-path)">
    <path id="Path_8" data-name="Path 8" d="M4,0H20a4,4,0,0,1,4,4V20a4,4,0,0,1-4,4H4a4,4,0,0,1-4-4V4A4,4,0,0,1,4,0Z" fill="none"/>
    <g id="Group_6" data-name="Group 6" transform="translate(-1832 -241)">
      <path id="Path_44" data-name="Path 44" d="M4.5,6h-3A1.5,1.5,0,0,1,0,4.5v-3A1.5,1.5,0,0,1,1.5,0h3A1.5,1.5,0,0,1,6,1.5v3" transform="translate(1839 248)" fill="none" stroke="#898989" stroke-width="1.5"/>
      <rect id="Rectangle_9" data-name="Rectangle 9" width="6" height="6" rx="2" transform="translate(1843 252)" fill="none" stroke="#898989" stroke-width="1.5"/>
    </g>
  </g>
</svg>
